<svg id="Layer_2" data-name="Layer 2" xmlns="http://www.w3.org/2000/svg" viewBox="0 0 69 46.38">
  <defs>
    <style>
      .cls-1 {
        fill: #dd1f26;
      }
      @media (prefers-color-scheme: dark) {
        .cls-1 {
          fill: #ffffff;
        }
      }
    </style>
  </defs>
  <g id="Layer_1-2" data-name="Layer 1">
    <path class="cls-1" d="M67.08,23.62c.49,1.44.54,3.05.26,4.54-.23,1.22-.53,2.38-.86,3.56-.21.75-.47,1.42-.81,2.11-1.65,3.4-4.99,4.74-8.57,4.99-.25.02-.44,0-.7.07h-24.17s.98-6.23.98-6.23l2.57-15.57,2.44-15.52.28-1.57h21.55c1.78.17,3.47.66,4.98,1.54,2.36,1.39,3.82,3.78,3.95,6.53.03.72.03,1.4,0,2.13-.08,1.94-.34,4.07-1.27,5.81-1.08,2.01-2.91,3.06-5.08,3.68.53.2,1.05.36,1.56.62,1.36.7,2.39,1.87,2.89,3.31ZM59.79,11.7c.12-1.51-.12-2.82-1.65-3.48-.37-.15-.73-.21-1.14-.26h-12.2s-1.28,7.98-1.28,7.98h11.68s1.05-.04,1.05-.04c.77-.03,1.5-.29,2.11-.77,1.07-.84,1.33-2.15,1.43-3.44ZM58.2,26.55c-.42-1.22-1.71-1.56-2.91-1.49h-13.19s-1.09,6.19-1.09,6.19h12.68c1.14,0,2.95.03,3.85-.7.35-.29.57-.7.67-1.14.21-.83.27-2.04-.01-2.86ZM31.95,9.58l.39-2.52.28-1.81L33.41,0h-7.94s-1.01,6.46-1.01,6.46l-2.96,18.48c-.37,2.15-1.15,4.19-3.25,5.13-.73.33-1.51.53-2.33.59-1.3.1-2.59.06-3.87-.21s-2.35-1.05-2.99-2.17c-.67-1.18-.88-2.75-.78-4.1l.05-.74,1.08-8.29.82-5.64L11.63,0H3.69s-1.77,12.36-1.77,12.36l-.43,2.94-1.06,7.18-.21,1.36c-.24,1.53-.31,3.03-.09,4.57.52,3.66,2.45,6.79,5.69,8.62,1.89,1.07,4.1,1.62,6.25,1.72.57.03,1.1-.02,1.66.03l.48.05,1.6-.05c3.26-.1,6.52-.9,8.96-3.17,2.64-2.45,3.89-6.07,4.49-9.53l.34-1.94.29-1.71,1.02-6.33,1.02-6.52ZM52.76,44.36c-.16-.05-.34-.1-.51-.11l-1.73-.02c-.09,0-.1-.23-.06-.29.03-.05.11-.13.21-.13h2.06s.71-.91.71-.91c-.87-.03-1.72-.04-2.59,0-.76.04-1.26.39-1.28,1.19,0,.46.26.86.75.86h1.83c.15.01.17.17.15.27-.02.1-.11.19-.24.19h-1.99c-.07-.01-.2,0-.25.04-.25.27-.46.55-.69.87h2.88c.31-.01.64-.15.86-.37.42-.43.46-1.41-.1-1.6ZM27.15,44.98l.6-.77-2.22-.02c-.01-.14.02-.25.06-.39h1.82s.7-.91.7-.91h-3.29s-.53,3.44-.53,3.44h2.74s.74-.9.74-.9h-.75s-1.65-.03-1.65-.03c0-.11-.04-.27.04-.35s.24-.08.38-.08h1.35ZM14.54,46.33h1.17s-.72-1.1-.72-1.1c.61-.21.91-.76.88-1.38-.03-.71-.76-.96-1.37-.96h-1.74s-.74.91-.74.91h2.57c.19,0,.37.19.34.37-.05.25-.28.41-.53.41h-2.49s-.26,1.75-.26,1.75h.9s.15-.87.15-.87c.37,0,1.23-.17,1.4.11.16.26.27.52.44.76ZM42.98,45.41l-.69.91h3.35s-1.25-2.88-1.25-2.88c-.09-.2-.14-.4-.34-.53-.26-.12-.61-.05-.8.21l-2.36,3.19c.39.04.7.02,1.06.01l1.63-2.22.57,1.29h-1.17ZM17.88,45.42l-.67.91h3.32s-1.34-3.13-1.34-3.13c-.07-.16-.18-.27-.29-.31-.46-.18-.76.24-1.02.6l-2.11,2.84c.37,0,.72.03,1.08-.01l1.64-2.2.56,1.28-1.16.03ZM61.67,44.19l-.3,2.13c.72-.01,1.4.04,2.08-.02.99-.08,1.72-.85,1.8-1.82.07-.77-.4-1.43-1.16-1.55-.56-.09-1.11-.07-1.67-.04l-.69.89,2,.02c.42,0,.65.42.61.81-.05.5-.47.81-.98.8-.32,0-.64-.04-.97-.02l.15-1.22h-.88ZM3.98,42.88h-.82s-.24,1.7-.24,1.7c-.01.09-.04.17-.1.22l-1.5-1.88c-.11-.13-.4-.07-.51,0-.13.08-.24.25-.27.43l-.45,2.96h.81s.31-1.94.31-1.94l1.4,1.77c.1.13.2.23.33.23.48.02.6-.41.66-.84l.39-2.65ZM29.71,45.47c-.24-.03-.56.01-.69-.24-.09-.17-.04-.41,0-.6l.21-1.26c.02-.15,0-.28.06-.45-.32-.02-.6-.05-.91-.01l-.3,2.17c-.05.34.07.71.32.93.62.53,2.06.49,2.68.1.39-.24.66-.62.73-1.07l.32-2.12c-.32-.02-.59-.03-.88.01l-.34,2.09c-.08.52-.81.51-1.19.47ZM6.98,44.91c-.08.51-.63.61-1.01.58l-.49-.04c-.29-.03-.49-.24-.45-.53l.29-2.02c-.32-.04-.59-.04-.89,0l-.29,2.25c-.06.45.2.85.59,1.03.41.18.83.2,1.28.2.82,0,1.68-.44,1.8-1.16l.3-1.73c.04-.2.03-.4.06-.6-.33-.02-.59-.01-.89.02l-.3,2ZM21.68,45.27c-.31-.26-.31-.7-.08-1.03.16-.25.46-.43.77-.43h1.45c.23-.3.47-.55.69-.91-1.19.04-2.86-.32-3.64.82-.35.52-.44,1.11-.24,1.68.17.49.6.83,1.13.9s1.1,0,1.66.02l.64-.77s.05-.1.03-.12-.08-.04-.13-.04l-1.53.02c-.28,0-.56.03-.76-.15ZM38.62,45.27c-.12-.11-.22-.27-.23-.51-.03-.47.36-.94.85-.95l1.53-.02.71-.91h-1.96c-.19,0-.38.04-.56.08-1.09.24-1.74,1.34-1.39,2.41.17.53.66.88,1.23.93.53.05,1.05,0,1.58.01l.69-.85c-.07-.05-.13-.07-.19-.07h-1.7c-.23,0-.4.02-.57-.14ZM10.5,43.8h1c.26-.29.49-.57.71-.92h-3.22s-.73.9-.73.9l1.33.04-.36,2.5c.34.01.6.03.9,0l.37-2.51ZM34.43,43.8h1.01s.71-.91.71-.91h-3.23s-.71.9-.71.9l1.33.02-.38,2.51c.33,0,.6.03.9-.02l.37-2.5ZM60.16,43.8h1.03s.69-.91.69-.91h-3.21s-.72.9-.72.9h1.31s-.37,2.53-.37,2.53c.34,0,.61.03.9-.02l.37-2.5ZM56.02,45.41l.37-2.51c-.33-.03-.6-.03-.89.03l-.51,3.4h2.53s.7-.86.7-.86c-.11-.05-.19-.05-.29-.05h-1.91ZM48.7,45.4h-1.74s.37-2.52.37-2.52c-.33-.01-.59-.02-.89,0l-.45,3.04c-.02.13-.1.29,0,.4h2.46c.24-.31.48-.54.69-.87-.14-.05-.28-.06-.42-.06ZM37.3,42.89c-.29,0-.56-.02-.83.01-.13.01-.09.18-.1.27l-.46,3.14c.31.02.57.03.89,0l.49-3.42ZM66.15,45.42c-.18-.12-.42-.06-.58.1-.2.2-.3.52-.09.74.12.12.33.15.5.1.13-.04.29-.15.35-.33.09-.27,0-.48-.19-.61Z"/>
  </g>
</svg>
