<?xml version="1.0" encoding="UTF-8"?>
<svg id="Layer_2" data-name="Layer 2" xmlns="http://www.w3.org/2000/svg" viewBox="0 0 180.98 177.66">
  <defs>
    <style>
      .cls-1 {
        fill: #fff;
      }
    </style>
  </defs>
  <g id="Layer_1-2" data-name="Layer 1">
    <g>
      <path class="cls-1" d="M112,70.18c-4.22,8.55-12.96,13.6-21.39,17.43-3.85,1.75-7.59,3.19-11.63,4.41l-6.25,1.9-6.1,1.55c-5.41,1.38-10.72,2.47-16.22,3.23l-6.75.94c-3.24.45-8.63.29-9.25,3.8-2.05,11.43-.66,24.62,3.24,35.58l.54,1.52c3.36,9.43,10.3,20,18.12,26.27,4.88,3.91,9.57,6.8,15.53,8.95l4.23,1.53-41.72-.03c-2.82,0-5.45-.6-8.06-1.35-12.14-3.47-18.22-13.86-18.22-26.15l.02-73.61c0-5.21,1.22-15.37,2.72-20.18.98-3.13,1.82-6.07,3.32-9.36l4.8,11.83c2.03,5,6.94,7.92,12.23,5.96,2.93-1.09,4.64-3.69,5.76-6.56l2.47-6.32,3.59-8.77c.79-.85,2.15-1.22,3.21-1.7,4.36-1.94,8.81-3.18,13.21-4.85,2.92-1.1,4.86-3.78,5.41-6.3,1.04-4.8-1.29-9.02-6.01-10.9l-15.92-6.35C57.39,3.45,74.54-.82,91.54.41c22.23,1.61,43.85,13.58,56.51,31.65l1.04,1.49c3.56,5.08,8.27,14.49,9.85,20.39l1.09,4.09c.93,3.5,2.34,14.21,2.35,17.94l.06,41.33c-3.21.12-5.9,2.08-7.15,5.07l-3.58,8.6c-.56,1.35-1.92,1.95-3.35,2.44l-7.07,2.44c-5.11,1.76-6.71,8.5-3.81,12.98,1.24,1.93,2.92,3.31,5.04,3.93,1.97.58,7.6,2.09,8.61,3.42,1.85,3.96,3.05,8.3,5.76,11.85-3.41,4.03-7.78,7.02-12.91,8.43-2.6.71-4.98,1.2-7.75,1.19l-41.19-.02c20.26-5.98,32.32-19.29,38.81-38.85,6.36-19.16,2.97-22.12,3.57-33.16l.19-3.48c.17-3.16-3.19-11.46-4.7-14.65-2.76-5.82-6.16-11.14-9.83-16.4-1.72-2.46-3.33-4.74-5.22-7.06-.62-.76-1.28-1.59-1.77-2.44s-.36-2.08-1.52-2.47l-1.36,7.2c-.25,1.33-.65,2.67-1.23,3.85Z"/>
      <path class="cls-1" d="M22.89,43.04c-.3-.76-.41-1.45-.85-2.03-.41-1.36-.81-2.65-1.57-3.88-.17-.28,0-.99-.47-1.18L0,28.02c1.68-.55,3.01-1.1,4.52-1.73l15.66-6.13c.44-1.44,1.15-2.97,1.73-4.42L28.18,0c.29,1.09.6,1.89,1.02,2.78l5.79,14.76c.36.93.67,2.11,1.43,2.73l19.66,7.8-14.64,5.85c-1.82.73-3.61,1.22-5.36,2.14l-1.03,2.48-6.95,17.48-5.22-12.99Z"/>
      <path class="cls-1" d="M168.53,148.97l-5.17,12.46-5.12-12.48-12.49-5.14,12.44-5.12c.89-1.56,1.97-5.11,2.64-6.39s.99-2.74,1.61-4.1l1.05-2.28c.16,1.38.79,2.25,1.25,3.37l2.21,5.41c.55,1.34.91,2.65,1.62,3.93,1,.59,8.18,3.28,8.39,3.4,1.26.78,2.74.92,4.02,1.82l-12.45,5.1Z"/>
      <path class="cls-1" d="M110.21,120.58c-6.22.21-9.2,1.28-14.45,4.75,2.69-3.77,6-7.3,10.15-9.16,1.87-.84,3.92-1.41,5.94-1.34,6.57.24,11.73,5.34,15.27,10.35-4.66-2.57-9.56-4.85-14.75-4.67l-2.16.07Z"/>
      <path class="cls-1" d="M62.74,120.59l-1.77-.06c-5.68-.21-10.36,1.74-14.61,4.57,2.98-5.04,9.46-10.19,14.95-10.27,3.33-.05,6.3,1.09,9.01,2.97,2.06,1.43,3.73,3.27,5.4,5.16.65.73,1.35,1.35,1.5,2.38-3.37-2.53-10.49-4.58-14.48-4.73Z"/>
    </g>
  </g>
</svg>