<?xml version="1.0" encoding="UTF-8"?>
<svg id="Layer_2" data-name="Layer 2" xmlns="http://www.w3.org/2000/svg" viewBox="0 0 26.09 5.91">
  <defs>
    <style>
      .cls-1 {
        fill: #67973f;
      }
    </style>
  </defs>
  <g id="Layer_1-2" data-name="Layer 1">
    <g>
      <path class="cls-1" d="M1.77,4.31c.17.31.46.55.94.55.22,0,.79-.05,1.42-.6-.45,1-1.13,1.65-2.18,1.65-1.11,0-1.94-.75-1.94-2.02S.86,1.7,2.16,1.7c1.01,0,1.66.53,1.66,1.31,0,.85-.79,1.32-2.05,1.3ZM1.67,4.06c.57-.06.93-.5.93-1.25,0-.57-.19-.87-.46-.87-.33,0-.59.47-.59,1.26,0,.24.02.57.13.86Z"/>
      <path class="cls-1" d="M6.1,5.83h-2.11,0c.21-.32.31-.68.31-1.05V1.22c0-.39-.1-.73-.31-1.05h0s1.78-.17,1.78-.17v3.44l1.02-.77c.35-.27.59-.69.54-.88h1.3c-.48.31-1.09.61-1.44.88l-.19.14,1.06,1.97c.2.38.5.73.87,1.05h.02s-1.42,0-1.42,0c-.38,0-.64-.17-.83-.5l-.88-1.64-.06.06v1.03c0,.38.1.73.31,1.05h0Z"/>
    </g>
    <g>
      <path class="cls-1" d="M13.34,4.78c0,.38.1.73.31,1.05h0s-2.11,0-2.11,0h0c.21-.32.31-.68.31-1.05v-1.42c0-.56-.21-.89-.54-.89-.39,0-.68.47-.68,1.09v1.21c0,.38.1.73.31,1.05h0s-2.11,0-2.11,0h0c.21-.32.31-.68.31-1.05v-1.78c0-.38-.1-.73-.31-1.05h0s1.78-.17,1.78-.17v.74c.28-.53.81-.83,1.46-.83.79,0,1.22.45,1.22,1.32v1.77Z"/>
      <path class="cls-1" d="M21.1,5.83h-2.17,0c.11-.32.11-.68,0-1.05l-.6-1.94c-.12-.39-.33-.73-.64-1.05h0s2.17,0,2.17,0h0c-.11.32-.11.67,0,1.05l.59,1.94c.03.09.06.17.09.25l.69-2.19c.12-.39.13-.73,0-1.05h0s.91,0,.91,0h-.02c-.31.32-.53.67-.64,1.05l-.79,2.51c.1.17.23.32.38.48h0Z"/>
      <path class="cls-1" d="M22.02,2.5c.46-.51,1.12-.8,1.93-.8,1.02,0,1.81.48,1.81,1.78v1.3c0,.38.11.73.32,1.05h0s-1.31,0-1.31,0c-.32,0-.47-.16-.47-.47v-.17c-.24.46-.65.72-1.22.72-.78,0-1.39-.5-1.39-1.2,0-.83.86-1.19,2.61-1.01v-.5c0-.71-.06-1.26-.53-1.26-.53,0-.74.72-.86,1.55l-.9-.99ZM24.31,3.95c-.83-.05-1.07.41-1.07.76,0,.31.19.56.43.56.36,0,.64-.49.64-1.23v-.09Z"/>
      <path class="cls-1" d="M18.13,3.78c0,1.27-.89,2.11-2.23,2.11s-2.23-.85-2.23-2.11.88-2.1,2.23-2.1,2.23.85,2.23,2.1ZM17.4,3.74l-.49-.15c-.41-.12-.71-.46-.84-.87l-.13-.44s-.02-.03-.04-.03c-.01,0-.03.01-.03.03l-.15.49c-.12.4-.43.7-.82.82l-.49.15s-.04.02-.03.04c0,.02.01.03.03.04l.44.13c.41.12.75.42.87.84l.15.48s.02.04.04.04.03-.01.04-.04l.13-.45c.12-.41.43-.73.84-.85l.48-.14s.04-.02.04-.04c0-.02-.01-.03-.03-.04Z"/>
    </g>
  </g>
</svg>