<?xml version="1.0" encoding="UTF-8"?>
<svg id="Layer_2" data-name="Layer 2" xmlns="http://www.w3.org/2000/svg" viewBox="0 0 630.39 225.61">
  <defs>
    <style>
      .cls-1 {
        fill: #fff;
      }
    </style>
  </defs>
  <g id="Layer_1-2" data-name="Layer 1">
    <path class="cls-1" d="M78.66,134.03l-5.55,26.02h43.37l-9.19,43.37H37.73c-8.85,0-15.46-8.16-13.62-16.82L56.88,32.3c1.37-6.43,7.04-11.03,13.62-11.03h75.46l-9.19,43.37h-43.37l-5.55,26.02h43.37l-52.56,43.37ZM293.42,21.27l-38.69,182.15h-43.37l17.78-83.88-35.13,83.88h-17.35l.43-83.62-17.78,83.62h-43.37L154.64,21.27h52.04l-2.95,95.41,37.64-95.41h52.04ZM371.48,21.27h-69.39l-38.69,182.15h69.39c23.13,0,37.15-11.56,42.07-34.69l3.64-17.35c4.92-23.13-.98-36.14-17.69-39.03,17.98-2.89,29.43-15.91,34.35-39.03l3.64-17.35c4.91-23.13-4.19-34.7-27.32-34.7ZM343.32,138.46l-4.38,20.55c-.8,3.74-4.1,6.41-7.92,6.41h-17.94l7.83-36.75h14.5c5.15,0,8.99,4.75,7.91,9.79ZM358.53,69.07l-4.38,20.55c-.8,3.74-4.1,6.41-7.92,6.41h-17.94l7.83-36.75h14.5c5.15,0,8.99,4.75,7.91,9.79ZM434.28,134.03l-5.55,26.02h43.37l-9.19,43.37h-86.74l38.68-182.15h86.74l-9.19,43.37h-43.37l-5.55,26.02h43.37l-52.56,43.37ZM623.61,10.91c-5.69-6.93-14.1-10.91-23.07-10.91H62.96c-14.18,0-26.49,10.09-29.26,24L.58,189.93c-1.76,8.8.5,17.83,6.19,24.77,5.69,6.93,14.1,10.91,23.07,10.91h537.58c14.18,0,26.49-10.09,29.26-24l33.12-165.93c1.76-8.8-.5-17.83-6.19-24.77ZM619.01,33.52l-33.12,165.94c-1.75,8.81-9.49,15.15-18.47,15.15H29.84c-11.88,0-20.8-10.87-18.47-22.52L44.49,26.15c1.75-8.81,9.49-15.15,18.47-15.15h537.58c11.88,0,20.8,10.87,18.47,22.52ZM599.06,21.27h-88.8l-38.69,182.15h43.37l14.75-69.39,2.6,69.39h30.44c7.12,0,12.87-5.81,12.8-12.92l-.65-65.14c11.56,0,19.8-11.57,24.72-34.7l5.53-26.02,6.46-27.56c1.89-8.08-4.23-15.81-12.53-15.81ZM566.16,63.16l-5.57,25.87c-1.02,4.71-4.78,8.07-9.04,8.07h-19.98l9.96-46.26h16.15c5.74,0,9.85,5.98,8.48,12.32Z"/>
  </g>
</svg>