<?xml version="1.0" encoding="UTF-8"?>
<svg id="Layer_2" data-name="Layer 2" xmlns="http://www.w3.org/2000/svg" viewBox="0 0 126.84 173.17">
  <defs>
    <style>
      .cls-1 {
        fill: #fff;
      }
    </style>
  </defs>
  <g id="Layer_1-2" data-name="Layer 1">
    <g>
      <path class="cls-1" d="M95.92,73.83c5.67,0,9.67,2.42,13.5,5.58-7.75-.01-14.06,3.82-18.17,10.32l-60.62.17c-6.23.02-12.16,1.45-17.99-.38-9.18-2.88-14.76-11.89-11.87-21.07,2.45-7.78,9.9-12.4,18.03-12.39l49.21.02c1.02,0,1.48-.83,1.69-1.27.23-.51-.01-1.84-.98-1.86l-24.55-.38c-8.37-.13-15.34-6.98-16.29-15.2-1.15-9.91,6.56-17.89,16.26-18.94,5.57-.6,10.95.48,16.68-.56l.21-12.35c.06-3.25,2.86-5.79,6.09-5.49.04,0,.07,0,.11.01,2.88.27,5.1,2.67,5.11,5.56l.05,18.84c0,2.37-.51,7.19-3.22,7.79-6.16,1.37-16.78-1.26-17.48,1.94-.15.69.59,1.77,1.9,1.77l24.26.09c4.31.02,8.33,1.83,11.56,4.53,7.72,6.46,7.72,18.5.14,25.12-3.44,3-7.69,4.71-12.42,4.72l-62.21.02c-1.07,0-1.87.87-2,1.42-.12.51.6,1.91,1.51,1.91l81.5.08Z"/>
      <path class="cls-1" d="M74.67,132.59c-2.19,8.31-9.01,12.92-17.34,13.92l-.12,19.76c-.03,4.5-4.27,7.79-8.64,6.68h0c-3.09-.78-5.26-3.58-5.24-6.77l.18-29.45c.01-2.22,1.76-3.89.58-5.88-3.44-5.78-9.72-2.14-16.93-3.42-8.49-1.51-15.34-7.88-15.57-16.59s7.29-17.39,16.86-17.45l61.04-.41c-.66,3.05-2.49,10.79,1.03,15.11l-57.27-.03c-1.15,0-1.87.73-2.01,1.32-.27,1.13.66,1.94,2,1.96l28.1.45c9.5.15,15.74,11.64,13.33,20.79Z"/>
      <path class="cls-1" d="M107.51,82.83c10.16-1.09,18.29,6.55,19.23,15.51,1.04,9.88-6.06,18.25-15.34,19.41-9.73,1.22-18.29-5.86-19.49-15.06-1.26-9.7,5.34-18.75,15.59-19.86ZM104.75,107.4c4.95-4.7,9.81-8.99,14.22-14.04.77-.88-1.42-2.11-2.03-1.83-.42.19-.97.4-1.62,1.03l-10.94,10.66-5.52-4.24c-.85-.65-1.81-.23-2.27.5-1.18,1.9,6.12,6.8,8.16,7.93Z"/>
    </g>
  </g>
</svg>