<?xml version="1.0" encoding="UTF-8"?>
<svg id="Layer_2" data-name="Layer 2" xmlns="http://www.w3.org/2000/svg" viewBox="0 0 165.48 165.45">
  <defs>
    <style>
      .cls-1 {
        fill: #fff;
      }
    </style>
  </defs>
  <g id="Layer_1-2" data-name="Layer 1">
    <g>
      <path class="cls-1" d="M16.32,28.96c.09,45.38,15.98,92.07,57.24,115.17,4.69-2.44,8.31-5.53,12.44-8.26,2.56.73,8.68.23,9.23.83.22.24.42.89.08,1.24l-3.95,4.05c-3.02,3.1-3.44,7.53-2.1,11.64-5.16,3.43-10.13,6.23-15.71,8.91C15.62,135.36-4.12,71.4.7,11.07c6.16.99,12,1.5,18.15,1.26,8.72.4,16.94-.72,25.48-2.44,10.24-2.13,19.87-5.45,29.23-9.88,9.45,4.49,18.95,7.76,29.11,9.86,8.68,1.77,17.03,2.87,25.89,2.46,6.02.25,11.75-.29,17.75-1.25,2.26,27.03-.61,55.03-9.81,80.53-.05-3.78-.87-7.06-3.38-9.63s-6.05-3.96-9.5-3.46c4.93-16.45,6.91-32.78,7.16-49.71-19.94.36-39.13-3.45-57.37-10.92-14.39,6.03-29.01,9.33-44.21,10.63l-12.89.43Z"/>
      <path class="cls-1" d="M119.18,160.71l-.29-10.35c-2.39-.85-4.74-1.57-6.88-2.9-3.07-1.9-8.97,13.08-15.92,6.04-2.1-2.12-2.42-5.8-.29-8.01l6.74-6.97c-1.35-2.53-2.56-4.92-3.12-7.89l-9.25-.05c-3.48-.02-5.85-2.49-5.95-5.66s2.37-5.97,5.93-5.99c3.12-.02,6.1.12,9.27-.07.59-2.91,1.64-5.28,3.22-7.78l-6.89-7.14c-2.05-2.12-1.7-5.82.21-7.84s5.68-2.62,7.81-.57l7.37,7.05c2.48-1.58,4.88-2.66,7.77-3.2l.11-9.69c.04-3.41,2.91-5.6,5.93-5.52,3.23.09,5.66,2.48,5.68,5.95l.06,9.24c2.85.63,5.23,1.59,7.75,3.15,2.56-2,4.45-4.45,6.88-6.58,2.28-2.01,5.77-2.14,8.03-.1,2.12,1.92,2.8,5.47.65,7.93-1.85,2.1-3.86,3.92-5.86,5.92-.6.6-1.17,1.39-.63,2.28,1.31,2.17,2.1,4.43,2.91,6.92l9.4.08c3.18.03,5.56,2.71,5.67,5.57.12,3.15-2.32,6.01-5.67,6.03l-9.4.06c-.78,2.82-2.01,5.27-3.29,8.02l6.47,6.59c2.38,2.42,2.25,5.9.07,8.18s-5.7,2.72-8.16.32l-6.79-6.62c-2.69,1.15-4.98,2.5-7.94,3.15-.32,3.19,0,6.23-.15,9.51-.14,3.01-2.44,5.39-5.26,5.66-2.66.25-6.09-1.54-6.18-4.71ZM118.35,110.41c-3.44.35-5.57,3.66-4.96,6.7s3.24,5.04,6.32,4.63,5.36-3.18,5-6.31c-.33-2.93-2.95-5.37-6.36-5.02ZM132.79,127.78c-3.37.53-5.53,3.87-4.98,6.57.66,3.2,3.43,5.15,6.38,4.8,3.26-.39,5.42-3.23,4.97-6.53-.37-2.73-3.11-5.35-6.37-4.84Z"/>
      <polygon class="cls-1" points="83.33 100.69 63.77 100.91 63.76 84.56 47.57 84.49 47.58 65 63.75 64.92 63.83 48.71 83.28 48.53 83.38 64.9 99.52 65.03 99.54 84.47 83.38 84.59 83.33 100.69"/>
    </g>
  </g>
</svg>