<?xml version="1.0" encoding="UTF-8"?>
<svg id="Layer_2" data-name="Layer 2" xmlns="http://www.w3.org/2000/svg" viewBox="0 0 220.65 176.81">
  <defs>
    <style>
      .cls-1 {
        fill: #fff;
      }
    </style>
  </defs>
  <g id="Layer_1-2" data-name="Layer 1">
    <g>
      <path class="cls-1" d="M220.54,97.51l.11,66.59c.01,7.97-8.29,14.38-16.54,12.32-5.13-1.28-9.95-5.3-10.1-11.16l-.32-12.05H27.06s-.25,11.54-.25,11.54c-.15,7.16-6.68,12.18-13.59,12.03S.17,171.43.15,164.12L0,62.86c-.01-7.62,4.9-13.62,12.37-14.3,6.77-.61,14.32,4.43,14.35,12.07l.23,46.43,29.99.33c6.05.07,9.2,6.33,8.76,12.2-1.16,8.73,4.71,18.38,14.28,18.4l98.56.16c7.75.01,14.85-6.16,14.96-13.7l.42-26.81c.11-7.27,6.21-12.6,13.26-12.63,6.53-.03,13.34,4.9,13.36,12.49Z"/>
      <path class="cls-1" d="M178.78,133.3l-97.19.09c-5.93,0-10.38-3.92-11.14-9.69l.1-34.13c.02-5.29,4.13-8.8,8.94-10.14,28.57-7.98,61.39-6.77,90.13-.48,6.64,1.45,19.18,3.75,19.19,12.15l.03,32.19c0,5.29-4.34,10.01-10.07,10.01Z"/>
      <path class="cls-1" d="M45.56,68.79c10.13-2.45,19.47,3.4,21.81,13.04,2.3,9.49-3.42,19.3-13.28,21.61-9.13,2.14-18.78-3.24-21.28-12.66s2.67-19.55,12.76-21.99Z"/>
      <path class="cls-1" d="M121.55,33.57h-19.26c-1.55-.01-3.06-.8-3.58-1.83-.61-1.21-.91-2.99.01-4.21l14.93-19.72c-5.93-1.09-14.97,2.15-15.49-3.67-.15-1.67.91-4.11,3.15-4.12L122.21,0c1.52,0,2.63,1.19,3.21,2.22s.37,2.63-.52,3.82l-14.48,19.23c5.64,1.7,16.34-1.93,15.28,4.96-.26,1.71-1.82,3.34-4.13,3.34Z"/>
      <path class="cls-1" d="M87.82,62.04c-5.44.33-10.41.07-15.56.12-1.46.01-2.76-1.01-3.12-1.88-.5-1.2-.8-2.89.01-3.96l9.85-12.91c-3.55-.91-10.02,1.55-10.35-3.81-.13-2.15,1.45-4.07,3.91-4.07h13.88c1.67,0,3.04.48,3.85,1.77.74,1.18.93,2.87-.07,4.32-2.94,4.23-6.38,7.83-9.14,12.29,3.37,1.69,8.59-1.24,9.73,3.56.39,1.63-.48,4.43-3,4.58Z"/>
    </g>
  </g>
</svg>